<svg width="167" height="80" viewBox="0 0 167 80" fill="none"
    xmlns="http://www.w3.org/2000/svg">
    <g id="No results found">
        <path id="Background" d="M46 69.4986C44.1435 69.4986 42.363 68.7663 41.0503 67.463C39.7375 66.1596 39 64.3919 39 62.5487C39 60.7055 39.7375 58.9378 41.0503 57.6344C42.363 56.3311 44.1435 55.5988 46 55.5988H7C5.14348 55.5988 3.36301 54.8666 2.05025 53.5633C0.737498 52.2599 0 50.4922 0 48.649C0 46.8058 0.737498 45.038 2.05025 43.7347C3.36301 42.4313 5.14348 41.6991 7 41.6991H47C48.8565 41.6991 50.637 40.9669 51.9497 39.6636C53.2625 38.3602 54 36.5925 54 34.7493C54 32.9061 53.2625 31.1383 51.9497 29.835C50.637 28.5316 48.8565 27.7994 47 27.7994H22C20.1435 27.7994 18.363 27.0672 17.0503 25.7639C15.7375 24.4605 15 22.6928 15 20.8496C15 19.0063 15.7375 17.2386 17.0503 15.9353C18.363 14.6319 20.1435 13.8997 22 13.8997H62C60.1435 13.8997 58.363 13.1675 57.0503 11.8641C55.7375 10.5608 55 8.79307 55 6.94985C55 5.10664 55.7375 3.33892 57.0503 2.03557C58.363 0.732215 60.1435 0 62 0L160 0C161.857 0 163.637 0.732215 164.95 2.03557C166.263 3.33892 167 5.10664 167 6.94985C167 8.79307 166.263 10.5608 164.95 11.8641C163.637 13.1675 161.857 13.8997 160 13.8997H120C121.857 13.8997 123.637 14.6319 124.95 15.9353C126.262 17.2386 127 19.0063 127 20.8496C127 22.6928 126.262 24.4605 124.95 25.7639C123.637 27.0672 121.857 27.7994 120 27.7994H142C143.857 27.7994 145.637 28.5316 146.95 29.835C148.263 31.1383 149 32.9061 149 34.7493C149 36.5925 148.263 38.3602 146.95 39.6636C145.637 40.9669 143.857 41.6991 142 41.6991H131.826C126.951 41.6991 123 44.8107 123 48.649C123 52.4873 129 55.5988 129 55.5988C130.857 55.5988 132.637 56.3311 133.95 57.6344C135.263 58.9378 136 60.7055 136 62.5487C136 64.3919 135.263 66.1596 133.95 67.463C132.637 68.7663 130.857 69.4986 129 69.4986H46ZM153 34.7493C153 33.3747 153.411 32.031 154.18 30.8881C154.949 29.7452 156.042 28.8545 157.321 28.3284C158.6 27.8024 160.008 27.6648 161.366 27.933C162.723 28.2011 163.971 28.863 164.95 29.835C165.929 30.8069 166.595 32.0453 166.865 33.3934C167.136 34.7416 166.997 36.1389 166.467 37.4089C165.937 38.6788 165.04 39.7642 163.889 40.5279C162.738 41.2915 161.384 41.6991 160 41.6991C158.143 41.6991 156.363 40.9669 155.05 39.6636C153.737 38.3602 153 36.5925 153 34.7493Z" fill="#F6F7FE"/>
        <g id="Search">
            <path id="Oval" d="M74.9328 62.9707C92.0166 62.9707 105.866 49.2678 105.866 32.3644C105.866 15.4609 92.0166 1.75799 74.9328 1.75799C57.8491 1.75799 44 15.4609 44 32.3644C44 49.2678 57.8491 62.9707 74.9328 62.9707Z" fill="white" stroke="#4961EA" stroke-width="2.5" stroke-miterlimit="10"/>
            <g id="Oval_2">
                <path d="M69.9761 56.1131C71.614 56.3921 73.2711 56.5467 74.9328 56.5754C80.5403 56.5777 85.979 54.6768 90.3409 51.1899C94.7028 47.7031 97.7238 42.8413 98.8998 37.4163C100.076 31.9913 99.3354 26.3313 96.8023 21.3813C94.2692 16.4313 90.0968 12.4907 84.9814 10.2175C79.8661 7.9443 74.1175 7.476 68.6953 8.89079C63.2731 10.3056 58.5055 13.5178 55.1883 17.9913C51.8711 22.4647 50.2051 27.9287 50.4685 33.4709C50.7318 39.0132 52.9086 44.2984 56.6353 48.4441" fill="white"/>
                <path d="M69.9761 56.1131C71.614 56.3921 73.2711 56.5467 74.9328 56.5754C80.5403 56.5777 85.979 54.6768 90.3409 51.1899C94.7028 47.7031 97.7238 42.8413 98.8998 37.4163C100.076 31.9913 99.3354 26.3313 96.8023 21.3813C94.2692 16.4313 90.0968 12.4907 84.9814 10.2175C79.8661 7.9443 74.1175 7.476 68.6953 8.89079C63.2731 10.3056 58.5055 13.5178 55.1883 17.9913C51.8711 22.4647 50.2051 27.9287 50.4685 33.4709C50.7318 39.0132 52.9086 44.2984 56.6353 48.4441" stroke="#4961EA" stroke-width="2.5" stroke-miterlimit="10" stroke-linecap="round"/>
            </g>
            <path id="Oval_3" d="M59.51 51.1622C61.5092 52.7715 63.753 54.058 66.1583 54.9738" stroke="#4961EA" stroke-width="2.5" stroke-miterlimit="10" stroke-linecap="round"/>
            <path id="Oval_4" d="M75.3946 15.4623C73.09 15.4598 70.8075 15.9071 68.6778 16.7786C66.5481 17.65 64.613 18.9286 62.9834 20.541C61.3538 22.1534 60.0616 24.068 59.1809 26.1753C58.3001 28.2825 57.848 30.5409 57.8506 32.8212" stroke="#4961EA" stroke-width="2.5" stroke-miterlimit="10" stroke-linecap="round"/>
            <path id="Path 4" d="M100.325 56.5754L105.866 62.0571" stroke="#4961EA" stroke-width="2.5" stroke-miterlimit="10"/>
            <g id="Rectangle">
                <path id="Vector" d="M118.371 78.858C117.175 78.858 116.051 78.3974 115.206 77.561L104.97 67.4333C103.225 65.7068 103.225 62.8976 104.97 61.1712C105.816 60.3348 106.939 59.8743 108.135 59.8743C109.33 59.8743 110.454 60.3348 111.299 61.1712L121.535 71.299C123.28 73.0254 123.28 75.8346 121.535 77.561C120.69 78.3974 119.566 78.858 118.371 78.858Z" fill="white"/>
                <path id="Vector_2" d="M108.135 61.0163C107.248 61.0163 106.414 61.3581 105.786 61.9787C104.492 63.2599 104.492 65.3445 105.786 66.6257L116.022 76.7535C116.65 77.3741 117.484 77.7159 118.371 77.7159C119.258 77.7159 120.092 77.3741 120.719 76.7535C122.014 75.4723 122.014 73.3877 120.719 72.1065L110.483 61.9787C109.856 61.3581 109.022 61.0163 108.135 61.0163ZM108.135 58.7322C109.575 58.7322 111.016 59.276 112.115 60.3636L122.351 70.4914C124.55 72.6666 124.55 76.1934 122.351 78.3686C120.153 80.5438 116.588 80.5438 114.39 78.3686L104.154 68.2408C101.956 66.0656 101.956 62.5389 104.154 60.3636C105.253 59.276 106.694 58.7322 108.135 58.7322Z" fill="#4961EA"/>
            </g>
        </g>
    </g>
</svg>
